<svg width="233" height="101" viewBox="0 0 233 101" fill="none" xmlns="http://www.w3.org/2000/svg">
<path d="M30.3822 55.12C31.1262 55.264 31.6782 55.516 32.0382 55.876C32.4222 56.236 32.6142 56.656 32.6142 57.136C32.6142 57.928 32.3862 58.504 31.9302 58.864C31.4982 59.224 30.8022 59.368 29.8422 59.296C27.6822 59.128 25.9902 59.02 24.7662 58.972C23.5662 58.9 21.9822 58.852 20.0142 58.828C19.1262 63.244 18.3102 67.684 17.5662 72.148C17.3022 73.78 17.0262 75.676 16.7382 77.836C16.4502 79.972 16.2582 81.7 16.1622 83.02C16.1142 83.716 15.8262 84.256 15.2982 84.64C14.7702 85 14.1342 85.18 13.3902 85.18C12.5982 85.18 11.9862 84.988 11.5542 84.604C11.1222 84.22 10.9062 83.716 10.9062 83.092C10.9062 82.516 10.9902 81.568 11.1582 80.248C11.3502 78.904 11.5662 77.5 11.8062 76.036C12.0702 74.572 12.2742 73.3 12.4182 72.22C12.6822 70.396 12.9822 68.584 13.3182 66.784C13.6542 64.984 13.9902 63.28 14.3262 61.672C14.3982 61.312 14.4822 60.904 14.5782 60.448C14.6742 59.968 14.7822 59.44 14.9022 58.864C12.5502 58.936 10.7022 59.128 9.35825 59.44C8.01425 59.752 7.05425 60.196 6.47825 60.772C5.92625 61.324 5.65025 62.044 5.65025 62.932C5.65025 63.748 5.89025 64.528 6.37025 65.272C6.46625 65.44 6.51425 65.62 6.51425 65.812C6.51425 66.268 6.23825 66.7 5.68625 67.108C5.15825 67.492 4.60625 67.684 4.03025 67.684C3.62225 67.684 3.28625 67.564 3.02225 67.324C2.54225 66.916 2.14625 66.34 1.83425 65.596C1.52225 64.828 1.36625 63.964 1.36625 63.004C1.36625 60.964 2.02625 59.332 3.34625 58.108C4.69025 56.86 6.71825 55.948 9.43025 55.372C12.1662 54.796 15.6702 54.508 19.9422 54.508C22.5822 54.508 24.6822 54.556 26.2422 54.652C27.8262 54.748 29.2062 54.904 30.3822 55.12ZM28.102 85.18C27.19 85.18 26.542 84.7 26.158 83.74C25.798 82.78 25.618 81.244 25.618 79.132C25.618 76.012 26.062 73.048 26.95 70.24C27.166 69.544 27.514 69.04 27.994 68.728C28.498 68.392 29.194 68.224 30.082 68.224C30.562 68.224 30.898 68.284 31.09 68.404C31.282 68.524 31.378 68.752 31.378 69.088C31.378 69.472 31.198 70.336 30.838 71.68C30.598 72.64 30.406 73.48 30.262 74.2C30.118 74.92 29.998 75.808 29.902 76.864C30.694 74.8 31.582 73.12 32.566 71.824C33.55 70.528 34.51 69.604 35.446 69.052C36.406 68.5 37.282 68.224 38.074 68.224C39.634 68.224 40.414 69.004 40.414 70.564C40.414 70.876 40.306 71.632 40.09 72.832C39.898 73.792 39.802 74.392 39.802 74.632C39.802 75.472 40.102 75.892 40.702 75.892C41.374 75.892 42.238 75.364 43.294 74.308C43.606 73.996 43.93 73.84 44.266 73.84C44.578 73.84 44.818 73.984 44.986 74.272C45.178 74.536 45.274 74.896 45.274 75.352C45.274 76.24 45.034 76.936 44.554 77.44C43.882 78.136 43.09 78.736 42.178 79.24C41.29 79.72 40.342 79.96 39.334 79.96C38.062 79.96 37.09 79.636 36.418 78.988C35.77 78.34 35.446 77.464 35.446 76.36C35.446 76 35.482 75.64 35.554 75.28C35.602 74.8 35.626 74.476 35.626 74.308C35.626 73.924 35.494 73.732 35.23 73.732C34.87 73.732 34.39 74.14 33.79 74.956C33.214 75.748 32.638 76.804 32.062 78.124C31.486 79.444 31.018 80.836 30.658 82.3C30.394 83.428 30.082 84.196 29.722 84.604C29.386 84.988 28.846 85.18 28.102 85.18ZM46.0568 85.18C44.5688 85.18 43.3808 84.64 42.4928 83.56C41.6048 82.48 41.1608 81.064 41.1608 79.312C41.1608 77.392 41.6048 75.58 42.4928 73.876C43.3808 72.148 44.5568 70.768 46.0208 69.736C47.5088 68.68 49.0808 68.152 50.7368 68.152C51.2648 68.152 51.6128 68.26 51.7808 68.476C51.9728 68.668 52.1288 69.028 52.2488 69.556C52.7528 69.46 53.2808 69.412 53.8328 69.412C55.0088 69.412 55.5968 69.832 55.5968 70.672C55.5968 71.176 55.4168 72.376 55.0568 74.272C54.5048 77.032 54.2288 78.952 54.2288 80.032C54.2288 80.392 54.3128 80.68 54.4808 80.896C54.6728 81.112 54.9128 81.22 55.2008 81.22C55.6568 81.22 56.2088 80.932 56.8568 80.356C57.5048 79.756 58.3808 78.796 59.4848 77.476C59.7728 77.14 60.0968 76.972 60.4568 76.972C60.7688 76.972 61.0088 77.116 61.1768 77.404C61.3688 77.692 61.4648 78.088 61.4648 78.592C61.4648 79.552 61.2368 80.296 60.7808 80.824C59.7968 82.048 58.7528 83.08 57.6488 83.92C56.5448 84.76 55.4768 85.18 54.4448 85.18C53.6528 85.18 52.9208 84.916 52.2488 84.388C51.6008 83.836 51.1088 83.092 50.7728 82.156C49.5248 84.172 47.9528 85.18 46.0568 85.18ZM47.3528 81.544C47.8808 81.544 48.3848 81.232 48.8648 80.608C49.3448 79.984 49.6928 79.156 49.9088 78.124L51.2408 71.5C50.2328 71.524 49.2968 71.908 48.4328 72.652C47.5928 73.372 46.9208 74.332 46.4168 75.532C45.9128 76.732 45.6608 78.004 45.6608 79.348C45.6608 80.092 45.8048 80.644 46.0928 81.004C46.4048 81.364 46.8248 81.544 47.3528 81.544ZM76.4105 74.056C76.4825 74.032 76.6025 74.02 76.7705 74.02C77.1305 74.02 77.4065 74.14 77.5985 74.38C77.7905 74.62 77.8865 74.944 77.8865 75.352C77.8865 76.096 77.7425 76.684 77.4545 77.116C77.1665 77.524 76.7345 77.824 76.1585 78.016C75.0545 78.376 73.8785 78.556 72.6305 78.556C71.5745 78.556 70.5785 78.412 69.6425 78.124C68.9465 79.252 68.1785 80.416 67.3385 81.616C66.3785 82.984 65.5505 83.92 64.8545 84.424C64.1585 84.928 63.3665 85.18 62.4785 85.18C61.4945 85.18 60.7145 84.796 60.1385 84.028C59.5865 83.26 59.2385 82.048 59.0945 80.392C58.8065 77.032 58.6625 74.092 58.6625 71.572V70.312C58.6865 69.52 58.9025 68.968 59.3105 68.656C59.7185 68.344 60.3305 68.188 61.1465 68.188C61.7705 68.188 62.2265 68.332 62.5145 68.62C62.8265 68.884 62.9825 69.34 62.9825 69.988C62.9825 72.748 63.1505 76.336 63.4865 80.752C64.9265 78.616 66.0065 76.912 66.7265 75.64C66.3665 74.944 66.1865 74.116 66.1865 73.156C66.1865 72.34 66.3665 71.548 66.7265 70.78C67.0865 70.012 67.5785 69.388 68.2025 68.908C68.8265 68.428 69.5345 68.188 70.3265 68.188C71.0225 68.188 71.5865 68.44 72.0185 68.944C72.4505 69.424 72.6665 70.132 72.6665 71.068C72.6665 72.148 72.3785 73.384 71.8025 74.776C72.7145 74.728 73.9265 74.548 75.4385 74.236L76.4105 74.056ZM90.5184 76.972C90.8304 76.972 91.0704 77.116 91.2384 77.404C91.4304 77.692 91.5264 78.088 91.5264 78.592C91.5264 79.552 91.2984 80.296 90.8424 80.824C89.9544 81.904 88.6944 82.9 87.0624 83.812C85.4544 84.724 83.7264 85.18 81.8784 85.18C79.3584 85.18 77.4024 84.496 76.0104 83.128C74.6184 81.76 73.9224 79.888 73.9224 77.512C73.9224 75.856 74.2704 74.32 74.9664 72.904C75.6624 71.464 76.6224 70.324 77.8464 69.484C79.0944 68.644 80.4984 68.224 82.0584 68.224C83.4504 68.224 84.5664 68.644 85.4064 69.484C86.2464 70.3 86.6664 71.416 86.6664 72.832C86.6664 74.488 86.0664 75.916 84.8664 77.116C83.6904 78.292 81.6864 79.228 78.8544 79.924C79.4544 81.028 80.5944 81.58 82.2744 81.58C83.3544 81.58 84.5784 81.208 85.9464 80.464C87.3384 79.696 88.5384 78.7 89.5464 77.476C89.8344 77.14 90.1584 76.972 90.5184 76.972ZM81.4464 71.752C80.5584 71.752 79.8024 72.268 79.1784 73.3C78.5784 74.332 78.2784 75.58 78.2784 77.044V77.116C79.6944 76.78 80.8104 76.276 81.6264 75.604C82.4424 74.932 82.8504 74.152 82.8504 73.264C82.8504 72.808 82.7184 72.448 82.4544 72.184C82.2144 71.896 81.8784 71.752 81.4464 71.752ZM98.6992 79.924C98.9632 79.684 99.2272 79.564 99.4912 79.564C99.7792 79.564 100.007 79.732 100.175 80.068C100.367 80.38 100.463 80.764 100.463 81.22C100.463 82.228 100.103 83.032 99.3832 83.632C98.1352 84.664 96.7192 85.18 95.1352 85.18C92.8552 85.18 91.1872 84.232 90.1312 82.336C89.0752 80.416 88.5472 77.92 88.5472 74.848C88.5472 71.92 88.9192 68.584 89.6632 64.84C90.4312 61.096 91.5472 57.88 93.0112 55.192C94.4992 52.504 96.2632 51.16 98.3032 51.16C99.4552 51.16 100.355 51.7 101.003 52.78C101.675 53.836 102.011 55.36 102.011 57.352C102.011 60.208 101.219 63.52 99.6352 67.288C98.0752 71.056 95.9392 74.776 93.2272 78.448C93.3952 79.432 93.6952 80.14 94.1272 80.572C94.5592 81.004 95.1472 81.22 95.8912 81.22C96.2992 81.22 96.7552 81.1 97.2592 80.86C97.7872 80.62 98.2672 80.308 98.6992 79.924ZM97.5112 54.724C96.9592 54.724 96.3352 55.72 95.6392 57.712C94.9432 59.704 94.3312 62.176 93.8032 65.128C93.2752 68.08 92.9872 70.912 92.9392 73.624C94.6432 70.816 95.9992 68.008 97.0072 65.2C98.0152 62.368 98.5192 59.788 98.5192 57.46C98.5192 55.636 98.1832 54.724 97.5112 54.724ZM138.376 63.544C138.376 65.584 137.848 67.456 136.792 69.16C135.736 70.864 134.2 72.256 132.184 73.336C130.168 74.416 127.768 75.052 124.984 75.244L123.436 83.92C122.836 87.256 121.204 88.924 118.54 88.924C117.076 88.924 115.72 88.492 114.472 87.628C113.248 86.764 112.264 85.444 111.52 83.668C110.776 81.892 110.404 79.708 110.404 77.116C110.404 72.244 111.184 68.116 112.744 64.732C114.328 61.324 116.44 58.78 119.08 57.1C121.744 55.396 124.672 54.544 127.864 54.544C130.12 54.544 132.028 54.94 133.588 55.732C135.172 56.524 136.36 57.604 137.152 58.972C137.968 60.316 138.376 61.84 138.376 63.544ZM125.632 71.536C130.552 70.912 133.012 68.356 133.012 63.868C133.012 62.284 132.484 61 131.428 60.016C130.396 59.008 128.788 58.504 126.604 58.504C124.132 58.504 121.972 59.284 120.124 60.844C118.3 62.404 116.884 64.576 115.876 67.36C114.892 70.12 114.4 73.276 114.4 76.828C114.4 78.316 114.544 79.636 114.832 80.788C115.144 81.94 115.528 82.84 115.984 83.488C116.464 84.112 116.92 84.424 117.352 84.424C117.952 84.424 118.408 83.596 118.72 81.94L119.908 75.136C118.972 74.992 118.564 74.932 118.684 74.956C117.964 74.836 117.496 74.62 117.28 74.308C117.064 73.972 116.956 73.552 116.956 73.048C116.956 72.52 117.1 72.1 117.388 71.788C117.7 71.476 118.12 71.32 118.648 71.32C118.888 71.32 119.068 71.332 119.188 71.356C119.764 71.452 120.208 71.512 120.52 71.536C120.832 69.664 121.276 67.156 121.852 64.012C121.996 63.196 122.32 62.62 122.824 62.284C123.352 61.924 123.964 61.744 124.66 61.744C125.452 61.744 126.016 61.9 126.352 62.212C126.712 62.5 126.892 62.968 126.892 63.616C126.892 64 126.868 64.312 126.82 64.552L125.632 71.536ZM152.789 76.972C153.101 76.972 153.341 77.116 153.509 77.404C153.701 77.692 153.797 78.088 153.797 78.592C153.797 79.552 153.569 80.296 153.113 80.824C152.081 82.096 150.953 83.14 149.729 83.956C148.529 84.772 147.161 85.18 145.625 85.18C143.513 85.18 141.941 84.22 140.909 82.3C139.901 80.38 139.397 77.896 139.397 74.848C139.397 71.92 139.769 68.584 140.513 64.84C141.281 61.096 142.397 57.88 143.861 55.192C145.349 52.504 147.113 51.16 149.153 51.16C150.305 51.16 151.205 51.7 151.853 52.78C152.525 53.836 152.861 55.36 152.861 57.352C152.861 60.208 152.069 63.52 150.485 67.288C148.901 71.056 146.753 74.788 144.041 78.484C144.209 79.468 144.485 80.176 144.869 80.608C145.253 81.016 145.757 81.22 146.381 81.22C147.365 81.22 148.229 80.944 148.973 80.392C149.717 79.816 150.665 78.844 151.817 77.476C152.105 77.14 152.429 76.972 152.789 76.972ZM148.361 54.724C147.809 54.724 147.185 55.72 146.489 57.712C145.793 59.704 145.181 62.176 144.653 65.128C144.125 68.08 143.837 70.912 143.789 73.624C145.493 70.816 146.849 68.008 147.857 65.2C148.865 62.368 149.369 59.788 149.369 57.46C149.369 55.636 149.033 54.724 148.361 54.724ZM154.664 85.18C153.176 85.18 151.988 84.64 151.1 83.56C150.212 82.48 149.768 81.064 149.768 79.312C149.768 77.392 150.212 75.58 151.1 73.876C151.988 72.148 153.164 70.768 154.628 69.736C156.116 68.68 157.688 68.152 159.344 68.152C159.872 68.152 160.22 68.26 160.388 68.476C160.58 68.668 160.736 69.028 160.856 69.556C161.36 69.46 161.888 69.412 162.44 69.412C163.616 69.412 164.204 69.832 164.204 70.672C164.204 71.176 164.024 72.376 163.664 74.272C163.112 77.032 162.836 78.952 162.836 80.032C162.836 80.392 162.92 80.68 163.088 80.896C163.28 81.112 163.52 81.22 163.808 81.22C164.264 81.22 164.816 80.932 165.464 80.356C166.112 79.756 166.988 78.796 168.092 77.476C168.38 77.14 168.704 76.972 169.064 76.972C169.376 76.972 169.616 77.116 169.784 77.404C169.976 77.692 170.072 78.088 170.072 78.592C170.072 79.552 169.844 80.296 169.388 80.824C168.404 82.048 167.36 83.08 166.256 83.92C165.152 84.76 164.084 85.18 163.052 85.18C162.26 85.18 161.528 84.916 160.856 84.388C160.208 83.836 159.716 83.092 159.38 82.156C158.132 84.172 156.56 85.18 154.664 85.18ZM155.96 81.544C156.488 81.544 156.992 81.232 157.472 80.608C157.952 79.984 158.3 79.156 158.516 78.124L159.848 71.5C158.84 71.524 157.904 71.908 157.04 72.652C156.2 73.372 155.528 74.332 155.024 75.532C154.52 76.732 154.268 78.004 154.268 79.348C154.268 80.092 154.412 80.644 154.7 81.004C155.012 81.364 155.432 81.544 155.96 81.544ZM169.402 85.18C168.49 85.18 167.842 84.7 167.458 83.74C167.098 82.78 166.918 81.244 166.918 79.132C166.918 76.012 167.362 73.048 168.25 70.24C168.466 69.544 168.814 69.04 169.294 68.728C169.798 68.392 170.494 68.224 171.382 68.224C171.862 68.224 172.198 68.284 172.39 68.404C172.582 68.524 172.678 68.752 172.678 69.088C172.678 69.472 172.498 70.336 172.138 71.68C171.898 72.64 171.706 73.48 171.562 74.2C171.418 74.92 171.298 75.808 171.202 76.864C171.994 74.8 172.882 73.12 173.866 71.824C174.85 70.528 175.81 69.604 176.746 69.052C177.706 68.5 178.582 68.224 179.374 68.224C180.934 68.224 181.714 69.004 181.714 70.564C181.714 71.5 181.45 73.192 180.922 75.64C180.466 77.728 180.238 79.108 180.238 79.78C180.238 80.74 180.586 81.22 181.282 81.22C181.762 81.22 182.326 80.932 182.974 80.356C183.646 79.756 184.534 78.796 185.638 77.476C185.926 77.14 186.25 76.972 186.61 76.972C186.922 76.972 187.162 77.116 187.33 77.404C187.522 77.692 187.618 78.088 187.618 78.592C187.618 79.552 187.39 80.296 186.934 80.824C185.902 82.096 184.786 83.14 183.586 83.956C182.41 84.772 181.066 85.18 179.554 85.18C178.33 85.18 177.406 84.832 176.782 84.136C176.158 83.416 175.846 82.384 175.846 81.04C175.846 80.368 176.014 79.168 176.35 77.44C176.662 75.928 176.818 74.884 176.818 74.308C176.818 73.924 176.686 73.732 176.422 73.732C176.11 73.732 175.666 74.14 175.09 74.956C174.538 75.748 173.962 76.804 173.362 78.124C172.786 79.444 172.318 80.836 171.958 82.3C171.694 83.428 171.382 84.196 171.022 84.604C170.686 84.988 170.146 85.18 169.402 85.18ZM186.961 85.18C186.049 85.18 185.401 84.7 185.017 83.74C184.657 82.78 184.477 81.244 184.477 79.132C184.477 76.012 184.921 73.048 185.809 70.24C186.025 69.544 186.373 69.04 186.853 68.728C187.357 68.392 188.053 68.224 188.941 68.224C189.421 68.224 189.757 68.284 189.949 68.404C190.141 68.524 190.237 68.752 190.237 69.088C190.237 69.472 190.057 70.336 189.697 71.68C189.457 72.64 189.265 73.48 189.121 74.2C188.977 74.92 188.857 75.808 188.761 76.864C189.553 74.8 190.441 73.12 191.425 71.824C192.409 70.528 193.369 69.604 194.305 69.052C195.265 68.5 196.141 68.224 196.933 68.224C198.493 68.224 199.273 69.004 199.273 70.564C199.273 71.5 199.009 73.192 198.481 75.64C198.025 77.728 197.797 79.108 197.797 79.78C197.797 80.74 198.145 81.22 198.841 81.22C199.321 81.22 199.885 80.932 200.533 80.356C201.205 79.756 202.093 78.796 203.197 77.476C203.485 77.14 203.809 76.972 204.169 76.972C204.481 76.972 204.721 77.116 204.889 77.404C205.081 77.692 205.177 78.088 205.177 78.592C205.177 79.552 204.949 80.296 204.493 80.824C203.461 82.096 202.345 83.14 201.145 83.956C199.969 84.772 198.625 85.18 197.113 85.18C195.889 85.18 194.965 84.832 194.341 84.136C193.717 83.416 193.405 82.384 193.405 81.04C193.405 80.368 193.573 79.168 193.909 77.44C194.221 75.928 194.377 74.884 194.377 74.308C194.377 73.924 194.245 73.732 193.981 73.732C193.669 73.732 193.225 74.14 192.649 74.956C192.097 75.748 191.521 76.804 190.921 78.124C190.345 79.444 189.877 80.836 189.517 82.3C189.253 83.428 188.941 84.196 188.581 84.604C188.245 84.988 187.705 85.18 186.961 85.18ZM218.021 76.972C218.333 76.972 218.573 77.116 218.741 77.404C218.933 77.692 219.029 78.088 219.029 78.592C219.029 79.552 218.801 80.296 218.345 80.824C217.457 81.904 216.197 82.9 214.565 83.812C212.957 84.724 211.229 85.18 209.381 85.18C206.861 85.18 204.905 84.496 203.513 83.128C202.121 81.76 201.425 79.888 201.425 77.512C201.425 75.856 201.773 74.32 202.469 72.904C203.165 71.464 204.125 70.324 205.349 69.484C206.597 68.644 208.001 68.224 209.561 68.224C210.953 68.224 212.069 68.644 212.909 69.484C213.749 70.3 214.169 71.416 214.169 72.832C214.169 74.488 213.569 75.916 212.369 77.116C211.193 78.292 209.189 79.228 206.357 79.924C206.957 81.028 208.097 81.58 209.777 81.58C210.857 81.58 212.081 81.208 213.449 80.464C214.841 79.696 216.041 78.7 217.049 77.476C217.337 77.14 217.661 76.972 218.021 76.972ZM208.949 71.752C208.061 71.752 207.305 72.268 206.681 73.3C206.081 74.332 205.781 75.58 205.781 77.044V77.116C207.197 76.78 208.313 76.276 209.129 75.604C209.945 74.932 210.353 74.152 210.353 73.264C210.353 72.808 210.221 72.448 209.957 72.184C209.717 71.896 209.381 71.752 208.949 71.752ZM230.342 73.156C230.87 73.156 231.314 73.348 231.674 73.732C232.058 74.092 232.25 74.548 232.25 75.1C232.25 75.412 232.178 75.748 232.034 76.108C231.65 76.996 231.11 77.74 230.414 78.34C229.718 78.94 228.95 79.24 228.11 79.24C227.438 79.24 226.862 79 226.382 78.52C225.926 78.04 225.698 77.392 225.698 76.576C225.698 76.12 225.722 75.628 225.77 75.1C225.818 74.716 225.842 74.452 225.842 74.308C225.842 74.116 225.794 73.972 225.698 73.876C225.626 73.78 225.53 73.732 225.41 73.732C225.074 73.732 224.618 74.14 224.042 74.956C223.466 75.748 222.89 76.804 222.314 78.124C221.738 79.444 221.27 80.836 220.91 82.3C220.646 83.452 220.346 84.22 220.01 84.604C219.674 84.988 219.122 85.18 218.354 85.18C217.442 85.18 216.794 84.7 216.41 83.74C216.05 82.78 215.87 81.244 215.87 79.132C215.87 76.012 216.314 73.048 217.202 70.24C217.418 69.544 217.766 69.04 218.246 68.728C218.75 68.392 219.446 68.224 220.334 68.224C220.814 68.224 221.15 68.284 221.342 68.404C221.534 68.524 221.63 68.752 221.63 69.088C221.63 69.472 221.45 70.336 221.09 71.68C220.85 72.64 220.658 73.48 220.514 74.2C220.37 74.92 220.25 75.808 220.154 76.864C220.946 74.8 221.834 73.12 222.818 71.824C223.802 70.528 224.762 69.604 225.698 69.052C226.634 68.5 227.486 68.224 228.254 68.224C228.95 68.224 229.478 68.428 229.838 68.836C230.222 69.22 230.414 69.796 230.414 70.564C230.414 71.02 230.282 71.884 230.018 73.156H230.342Z" fill="#8791EB"/>
<path d="M151.014 0.24877C150.786 0.0206213 150.449 -0.0582225 150.143 0.0440705L119.212 10.4297C118.767 10.5791 118.527 11.0608 118.677 11.5056C118.826 11.9504 119.307 12.1899 119.753 12.0407L144.962 3.57618L115.073 24.1851L107.156 16.2691L115.994 13.3014C116.439 13.1521 116.678 12.6704 116.529 12.2255C116.38 11.7807 115.898 11.5409 115.453 11.6906L105.315 15.0948C105.037 15.1884 104.826 15.4196 104.759 15.706C104.692 15.9923 104.777 16.2931 104.985 16.5011L114.145 25.6604L114.748 35.314L114.538 35.5235C114.207 35.8554 114.207 36.3933 114.539 36.725C114.704 36.8908 114.922 36.9738 115.139 36.9738C115.357 36.9738 115.574 36.8908 115.74 36.7249L115.95 36.5154L125.603 37.1188L134.762 46.2781C134.924 46.4393 135.141 46.5269 135.363 46.5269C135.428 46.5269 135.493 46.5195 135.558 46.5043C135.844 46.437 136.075 46.2266 136.169 45.9477L143.127 25.2252C143.276 24.7804 143.036 24.2986 142.592 24.1493C142.147 24.0001 141.665 24.2394 141.516 24.6844L134.994 44.1068L127.078 36.1908L147.687 6.29991L142.777 20.9257C142.628 21.3705 142.867 21.8522 143.312 22.0015C143.402 22.0316 143.493 22.0459 143.583 22.0459C143.938 22.0459 144.269 21.8216 144.388 21.4665L151.219 1.1199C151.322 0.81427 151.242 0.476918 151.014 0.24877ZM125.55 35.4129L117.552 34.9129L144.422 8.04309L125.55 35.4129ZM143.22 6.84163L116.35 33.7113L115.85 25.7129L143.22 6.84163Z" fill="#8791EB"/>
<path d="M112.751 45.2008H111.303C110.833 45.2008 110.453 45.5811 110.453 46.0504C110.453 46.5197 110.833 46.9 111.303 46.9H112.751C113.22 46.9 113.6 46.5197 113.6 46.0504C113.6 45.5811 113.22 45.2008 112.751 45.2008Z" fill="#8791EB"/>
<path d="M120.097 48.1841C119.648 48.0495 119.174 48.3036 119.039 48.7531C118.972 48.9764 118.848 49.1794 118.671 49.3564L118.448 49.5789C118.116 49.9108 118.116 50.4487 118.448 50.7805C118.614 50.9463 118.832 51.0293 119.049 51.0293C119.266 51.0293 119.484 50.9463 119.65 50.7805L119.872 50.558C120.25 50.1801 120.517 49.7374 120.666 49.2423C120.801 48.7931 120.546 48.3194 120.097 48.1841Z" fill="#8791EB"/>
<path d="M109.135 41.9233C108.725 41.6956 108.208 41.8436 107.98 42.2539C107.728 42.708 107.595 43.2238 107.595 43.7453C107.595 43.8913 107.605 44.0392 107.626 44.1844C107.685 44.6088 108.049 44.9153 108.466 44.9153C108.505 44.9153 108.545 44.9126 108.586 44.9069C109.05 44.8412 109.374 44.4114 109.308 43.9467C109.299 43.8799 109.294 43.8122 109.294 43.7453C109.294 43.5082 109.352 43.2839 109.466 43.0784C109.693 42.6682 109.545 42.1509 109.135 41.9233Z" fill="#8791EB"/>
<path d="M111.385 40.7282C111.602 40.7282 111.82 40.6453 111.986 40.4794L113.01 39.4555C113.341 39.1236 113.341 38.5857 113.01 38.2539C112.678 37.9222 112.14 37.9222 111.808 38.2539L110.784 39.2778C110.452 39.6098 110.452 40.1476 110.784 40.4794C110.95 40.6452 111.167 40.7282 111.385 40.7282Z" fill="#8791EB"/>
<path d="M118.896 46.2275C118.975 45.765 118.664 45.3259 118.202 45.2469C118.023 45.2163 117.838 45.2009 117.653 45.2009H116.612C116.143 45.2009 115.763 45.5812 115.763 46.0505C115.763 46.5199 116.143 46.9001 116.612 46.9001H117.653C117.743 46.9001 117.831 46.9074 117.915 46.9218C117.964 46.9301 118.012 46.934 118.059 46.934C118.466 46.934 118.825 46.6415 118.896 46.2275Z" fill="#8791EB"/>
<path d="M115.718 52.3094L114.694 53.3334C114.362 53.6653 114.362 54.2031 114.694 54.5349C114.86 54.7008 115.078 54.7837 115.295 54.7837C115.512 54.7837 115.73 54.7008 115.896 54.5349L116.92 53.511C117.252 53.1791 117.252 52.6412 116.92 52.3094C116.588 51.9777 116.05 51.9777 115.718 52.3094Z" fill="#8791EB"/>
<path d="M111.958 56.069L111.477 56.5495C111.146 56.8814 111.146 57.4193 111.477 57.7511C111.643 57.9169 111.861 57.9998 112.078 57.9998C112.296 57.9998 112.513 57.9169 112.679 57.7511L113.16 57.2705C113.491 56.9386 113.491 56.4008 113.16 56.069C112.828 55.7373 112.29 55.7373 111.958 56.069Z" fill="#8791EB"/>
</svg>
