<svg width="305" height="263" viewBox="0 0 305 263" fill="none" xmlns="http://www.w3.org/2000/svg">
<circle cx="143" cy="125" r="125" fill="#01196D"/>
<path d="M73.5143 190.113C74.7217 189.296 75.8193 188.245 76.7193 186.975C80.6289 181.461 79.4159 173.878 74.0113 170.046C72.0023 168.622 69.6834 167.916 67.381 167.879C68.097 160.882 65.2002 153.793 59.1531 149.507C50.1384 143.116 37.5553 145.39 31.0343 154.589C30.8352 154.87 30.6462 155.158 30.4572 155.446C23.2934 153.448 15.2549 156.098 10.6223 162.633C4.75787 170.906 6.57733 182.28 14.6844 188.027L52.2113 214.63C59.421 219.741 69.491 217.921 74.7063 210.564C79.2724 204.123 78.5992 195.563 73.5143 190.113Z" fill="#8791EB"/>
<path d="M122.954 223.683C123.953 222.538 124.702 221.194 125.105 219.691C126.859 213.162 121.517 206.048 113.179 203.809C110.08 202.977 106.987 202.939 104.258 203.553C101.489 196.47 94.4207 190.32 85.092 187.815C71.1855 184.08 57.5534 189.876 54.6291 200.765C54.5398 201.098 54.4662 201.435 54.3926 201.772C44.9314 201.833 36.8409 206.713 34.7635 214.449C32.1336 224.242 40.1467 234.912 52.6531 238.271L110.544 253.817C121.666 256.803 132.576 252.165 134.915 243.456C136.962 235.831 131.751 227.603 122.954 223.683Z" fill="#8791EB"/>
<path d="M123.389 222.123C122.538 220.627 121.875 218.933 121.476 217.102C119.742 209.15 123.587 201.553 130.06 200.142C132.466 199.618 134.91 200.028 137.1 201.154C138.913 193.214 144.174 187.006 151.416 185.428C162.213 183.074 173.299 191.911 176.191 205.175C176.279 205.58 176.355 205.988 176.431 206.396C183.915 207.861 190.571 214.803 192.625 224.225C195.226 236.154 189.458 247.549 179.748 249.665L134.804 259.463C126.169 261.345 117.297 254.273 114.984 243.665C112.96 234.377 116.642 225.449 123.389 222.123Z" fill="#8791EB"/>
<path d="M183.003 200.05C182.596 198.238 182.486 196.301 182.74 194.328C183.843 185.758 191.343 179.655 199.485 180.703C202.511 181.092 205.213 182.426 207.336 184.376C212.59 177.162 221.202 172.977 230.312 174.15C243.892 175.897 253.401 188.89 251.562 203.184C251.506 203.621 251.434 204.056 251.363 204.49C259.555 208.783 264.62 218.212 263.313 228.367C261.659 241.222 250.408 250.376 238.196 248.805L181.663 241.53C170.802 240.133 163.192 229.735 164.663 218.303C165.951 208.293 173.786 200.803 183.003 200.05Z" fill="#8791EB"/>
<path d="M271.081 199.524C270.263 200.731 269.211 201.828 267.941 202.727C262.423 206.632 254.841 205.413 251.014 200.005C249.591 197.995 248.887 195.676 248.851 193.373C241.854 194.084 234.768 191.181 230.486 185.131C224.102 176.111 226.387 163.53 235.591 157.016C235.872 156.817 236.16 156.628 236.448 156.44C234.456 149.274 237.113 141.238 243.651 136.611C251.928 130.753 263.301 132.581 269.042 140.693L295.615 178.241C300.721 185.454 298.892 195.523 291.531 200.732C285.087 205.293 276.527 204.614 271.081 199.524Z" fill="#8791EB"/>
<path d="M216.987 70.5164C221.301 70.5164 225.241 68.3752 227.851 64.8665C228.237 64.3475 227.816 63.5893 227.22 63.7132C220.434 65.1231 214.202 59.4472 214.202 51.9743C214.202 47.6697 216.314 43.7114 219.747 41.5801C220.277 41.2515 220.144 40.3763 219.542 40.2551C218.699 40.0855 217.844 40.0001 216.987 40C209.266 40 203 46.8251 203 55.2582C203 63.6805 209.256 70.5164 216.987 70.5164Z" fill="#F9E997"/>
<path d="M184.464 20.3479L183.243 22.9335L180.512 23.3494C180.022 23.4237 179.826 24.0544 180.181 24.4157L182.157 26.4272L181.69 29.2686C181.606 29.7822 182.123 30.167 182.557 29.9268L185 28.5851L187.443 29.9268C187.877 30.165 188.394 29.7822 188.31 29.2686L187.843 26.4272L189.819 24.4157C190.174 24.0544 189.978 23.4237 189.488 23.3494L186.757 22.9335L185.536 20.3479C185.318 19.887 184.684 19.8811 184.464 20.3479Z" fill="#F9E997"/>
<path d="M166.464 107.348L165.243 109.933L162.512 110.349C162.022 110.424 161.826 111.054 162.181 111.416L164.157 113.427L163.69 116.269C163.606 116.782 164.123 117.167 164.557 116.927L167 115.585L169.443 116.927C169.877 117.165 170.394 116.782 170.31 116.269L169.843 113.427L171.819 111.416C172.174 111.054 171.978 110.424 171.488 110.349L168.757 109.933L167.536 107.348C167.318 106.887 166.684 106.881 166.464 107.348Z" fill="#F9E997"/>
<path d="M222.464 107.348L221.243 109.933L218.512 110.349C218.022 110.424 217.826 111.054 218.181 111.416L220.157 113.427L219.69 116.269C219.606 116.782 220.123 117.167 220.557 116.927L223 115.585L225.443 116.927C225.877 117.165 226.394 116.782 226.31 116.269L225.843 113.427L227.819 111.416C228.174 111.054 227.978 110.424 227.488 110.349L224.757 109.933L223.536 107.348C223.318 106.887 222.684 106.881 222.464 107.348Z" fill="#F9E997"/>
<path d="M114.464 150.348L113.243 152.933L110.512 153.349C110.022 153.424 109.826 154.054 110.181 154.416L112.157 156.427L111.69 159.269C111.606 159.782 112.123 160.167 112.557 159.927L115 158.585L117.443 159.927C117.877 160.165 118.394 159.782 118.31 159.269L117.843 156.427L119.819 154.416C120.174 154.054 119.978 153.424 119.488 153.349L116.757 152.933L115.536 150.348C115.318 149.887 114.684 149.881 114.464 150.348Z" fill="#F9E997"/>
<path d="M125.464 25.3479L124.243 27.9335L121.512 28.3494C121.022 28.4237 120.826 29.0544 121.181 29.4157L123.157 31.4272L122.69 34.2686C122.606 34.7822 123.123 35.167 123.557 34.9268L126 33.5851L128.443 34.9268C128.877 35.165 129.394 34.7822 129.31 34.2686L128.843 31.4272L130.819 29.4157C131.174 29.0544 130.978 28.4237 130.488 28.3494L127.757 27.9335L126.536 25.3479C126.318 24.887 125.684 24.8811 125.464 25.3479Z" fill="#F9E997"/>
<path d="M37.4636 107.348L36.243 109.933L33.5122 110.349C33.0224 110.424 32.8262 111.054 33.1813 111.416L35.157 113.427L34.6897 116.269C34.6056 116.782 35.1234 117.167 35.557 116.927L38 115.585L40.443 116.927C40.8766 117.165 41.3944 116.782 41.3103 116.269L40.843 113.427L42.8187 111.416C43.1738 111.054 42.9776 110.424 42.4878 110.349L39.757 109.933L38.5364 107.348C38.3178 106.887 37.6841 106.881 37.4636 107.348Z" fill="#F9E997"/>
<path d="M65.3211 103.932C65.929 104.061 66.5551 104.082 67.1701 103.992L86.0754 100.923L88.1552 97.666C88.2431 97.5283 88.3588 97.4106 88.4949 97.3203C88.631 97.23 88.7844 97.1691 88.9454 97.1416L109.599 93.6094C109.839 93.5681 110.086 93.6026 110.305 93.708C110.525 93.8134 110.706 93.9846 110.824 94.1978C110.941 94.4109 110.99 94.6554 110.962 94.8973C110.934 95.1392 110.832 95.3665 110.669 95.5476L109.646 96.6873L132.957 92.6787C133.67 92.556 134.329 92.2194 134.847 91.7135C135.364 91.2075 135.716 90.5562 135.855 89.8459C135.994 89.1356 135.913 88.3999 135.624 87.7364C135.335 87.0728 134.851 86.5128 134.237 86.1307C131.467 84.4139 128.375 83.2842 125.151 82.8117C121.927 82.3392 118.641 82.5339 115.495 83.3838L67.9133 95.5756C67.7112 95.6273 67.4989 95.6242 67.2983 95.5664C67.0978 95.5086 66.9164 95.3984 66.7727 95.247L58.0468 86.0537C56.7717 84.7076 55.1836 83.6975 53.4239 83.1132C51.6642 82.5289 49.7874 82.3885 47.9604 82.7046L44.9956 83.2145L58.5097 99.8521C60.2176 101.985 62.6349 103.433 65.3211 103.932Z" fill="#8791EB"/>
<path d="M83.1132 122.734L106.675 96.4876L89.8513 99.3642L75.8971 121.221L83.1132 122.734Z" fill="#8791EB"/>
<path d="M98.8483 85.2295L81.3707 74.3025L77.0031 75.8465L89.0456 87.7413L98.8483 85.2295Z" fill="#8791EB"/>
</svg>
