<svg width="70" height="80" viewBox="0 0 70 80" fill="none" xmlns="http://www.w3.org/2000/svg">
<path d="M64.0601 5.17719H62.7347V3.76047C62.7347 1.68687 61.1567 0 59.2168 0C57.2769 0 55.6989 1.68687 55.6989 3.76047V5.17719H50.6267V3.76047C50.6268 1.68687 49.0486 0 47.1089 0C45.1692 0 43.591 1.68687 43.591 3.76047V5.17719H38.5188V3.76047C38.5188 1.68687 36.9407 0 35.0009 0C33.061 0 31.4829 1.68687 31.4829 3.76047V5.17719H26.4107V3.76047C26.4109 1.68687 24.8327 0 22.8929 0C20.9531 0 19.375 1.68687 19.375 3.76047V5.17719H18.0495C14.7745 5.17719 12.1102 8.02531 12.1102 11.5259V40.2036L9.42856 37.337C8.05688 35.8708 5.82512 35.8709 4.45344 37.337L1.02876 40.9978C-0.342921 42.4639 -0.342921 44.8497 1.02876 46.3158L12.1101 58.1611V73.6511C12.1101 77.1519 14.7745 80 18.0494 80H55.3432C55.9487 80 56.4395 79.4753 56.4395 78.8281C56.4395 78.1809 55.9487 77.6562 55.3432 77.6562H18.0495C15.9835 77.6562 14.3028 75.8595 14.3028 73.6511V60.5048L23.2462 70.0648C23.2723 70.0927 23.2995 70.1189 23.3277 70.1434C23.3468 70.1601 23.3667 70.175 23.3866 70.1901C23.3959 70.1972 23.4047 70.2051 23.4142 70.2119C23.4393 70.2298 23.4652 70.2458 23.4914 70.2612C23.4963 70.2642 23.501 70.2676 23.506 70.2705C23.5336 70.2862 23.5618 70.3 23.5902 70.313C23.5944 70.3148 23.5984 70.3173 23.6028 70.3192C23.6304 70.3314 23.6585 70.3417 23.6867 70.3514C23.6925 70.3534 23.6981 70.3559 23.7039 70.3578C23.7305 70.3664 23.7574 70.3731 23.7843 70.3794C23.7923 70.3812 23.8001 70.3839 23.8081 70.3856C23.8343 70.3911 23.8606 70.3947 23.8871 70.3981C23.8963 70.3994 23.9052 70.4014 23.9144 70.4023C23.9499 70.4061 23.9857 70.408 24.0214 70.408H30.4166L31.8079 71.8951C32.0219 72.1239 32.3025 72.2384 32.583 72.2384C32.8635 72.2384 33.1442 72.1239 33.3582 71.8951C33.7863 71.4375 33.7863 70.6955 33.3582 70.2378L31.9669 68.7508V61.915C31.9669 61.8766 31.9651 61.8383 31.9616 61.8C31.9609 61.7916 31.9591 61.7834 31.9583 61.775C31.9549 61.7453 31.9513 61.7158 31.9458 61.6864C31.9444 61.6789 31.9423 61.6716 31.9407 61.6641C31.9346 61.6342 31.928 61.6044 31.9198 61.575C31.9184 61.5697 31.9163 61.5647 31.9147 61.5594C31.9055 61.5283 31.8954 61.4973 31.8837 61.4669C31.8824 61.4636 31.8808 61.4605 31.8795 61.4572C31.8669 61.4255 31.8533 61.3941 31.8381 61.3634C31.8361 61.3594 31.8337 61.3558 31.8317 61.3517C31.8166 61.3223 31.8008 61.2934 31.7833 61.2653C31.7779 61.2566 31.7715 61.2484 31.7658 61.2398C31.7509 61.2172 31.7359 61.1945 31.7194 61.1728C31.6963 61.1427 31.6719 61.1136 31.6459 61.0858L22.7023 51.5256H60.4275C61.033 51.5256 61.5238 51.0009 61.5238 50.3537C61.5238 49.7066 61.033 49.1819 60.4275 49.1819H21.6821C21.36 49.1819 21.0712 49.3312 20.8707 49.5677L14.3027 42.5469V20.4636H67.8068V28.4559C67.8068 29.1031 68.2976 29.6278 68.9031 29.6278C69.5085 29.6278 69.9994 29.1031 69.9994 28.4559V11.5259C69.9995 8.02516 67.3351 5.17719 64.0601 5.17719ZM29.7745 68.0644H26.6681L29.7745 64.7439V68.0644ZM6.77904 49.148L8.65341 47.1445L25.8958 65.5756L24.0215 67.5791L6.77904 49.148ZM27.4461 63.9183L10.2037 45.4872L12.0781 43.4837L29.3204 61.9148L27.4461 63.9183ZM2.57921 42.6552L6.00389 38.9944C6.52061 38.442 7.36154 38.4419 7.87826 38.9944L10.5278 41.8266L5.22873 47.4906L2.57936 44.6586C2.06249 44.1062 2.06249 43.2075 2.57921 42.6552ZM59.2168 2.34375C59.9477 2.34375 60.5421 2.97922 60.5421 3.76047V8.9375C60.5421 9.71875 59.9477 10.3542 59.2168 10.3542C58.4859 10.3542 57.8915 9.71875 57.8915 8.9375V6.35062C57.8915 6.35016 57.8915 6.34969 57.8915 6.34906C57.8915 6.34844 57.8915 6.34812 57.8915 6.3475V3.76047C57.8916 2.97922 58.4861 2.34375 59.2168 2.34375ZM47.1089 2.34375C47.8398 2.34375 48.4342 2.97922 48.4342 3.76047V8.9375C48.4342 9.71875 47.8398 10.3542 47.1089 10.3542C46.378 10.3542 45.7836 9.71875 45.7836 8.9375V6.35062C45.7836 6.35016 45.7836 6.34969 45.7836 6.34906C45.7836 6.34844 45.7836 6.34812 45.7836 6.3475V3.76047C45.7836 2.97922 46.378 2.34375 47.1089 2.34375ZM33.6757 3.76047C33.6757 2.97922 34.2701 2.34375 35.001 2.34375C35.7319 2.34375 36.3263 2.97922 36.3263 3.76047V6.3475V6.34906C36.3263 6.34906 36.3263 6.35 36.3263 6.35062V8.9375C36.3263 9.71875 35.7319 10.3542 35.001 10.3542C34.2703 10.3542 33.6757 9.71875 33.6757 8.9375V3.76047ZM22.8929 2.34375C23.6237 2.34375 24.2183 2.97922 24.2183 3.76047V8.9375C24.2183 9.71875 23.6238 10.3542 22.8929 10.3542C22.1621 10.3542 21.5676 9.71875 21.5676 8.9375V3.76047C21.5676 2.97922 22.1621 2.34375 22.8929 2.34375ZM14.3028 18.1198V11.5259C14.3028 9.3175 15.9837 7.52094 18.0495 7.52094H19.375V8.9375C19.375 11.0111 20.9531 12.698 22.8929 12.698C24.8327 12.698 26.4109 11.0111 26.4109 8.9375V7.52094H31.4831V8.9375C31.4831 11.0111 33.0611 12.698 35.001 12.698C36.9408 12.698 38.5189 11.0111 38.5189 8.9375V7.52094H43.5911V8.9375C43.5911 11.0111 45.1692 12.698 47.109 12.698C49.0489 12.698 50.627 11.0111 50.627 8.9375V7.52094H55.6992V8.9375C55.6992 11.0111 57.2772 12.698 59.2171 12.698C61.1569 12.698 62.735 11.0111 62.735 8.9375V7.52094H64.0604C66.1264 7.52094 67.8072 9.31766 67.8072 11.5259V18.1198H14.3028Z" fill="#C4C4C4"/>
<path d="M68.9039 31.9717C68.2985 31.9717 67.8076 32.4964 67.8076 33.1436V73.6511C67.8076 75.8595 66.1268 77.6562 64.0608 77.6562H59.7291C59.1237 77.6562 58.6328 78.1809 58.6328 78.8281C58.6328 79.4753 59.1237 80 59.7291 80H64.0608C67.3358 80 70.0002 77.1519 70.0002 73.6511V33.1436C70.0002 32.4964 69.5094 31.9717 68.9039 31.9717Z" fill="#C4C4C4"/>
<path d="M21.6822 28.2292H60.4277C61.0332 28.2292 61.524 27.7045 61.524 27.0573C61.524 26.4102 61.0332 25.8855 60.4277 25.8855H21.6822C21.0768 25.8855 20.5859 26.4102 20.5859 27.0573C20.5859 27.7045 21.0768 28.2292 21.6822 28.2292Z" fill="#C4C4C4"/>
<path d="M21.6822 35.9948H60.4277C61.0332 35.9948 61.524 35.4702 61.524 34.823C61.524 34.1758 61.0332 33.6511 60.4277 33.6511H21.6822C21.0768 33.6511 20.5859 34.1758 20.5859 34.823C20.5859 35.4702 21.0768 35.9948 21.6822 35.9948Z" fill="#C4C4C4"/>
<path d="M21.6822 43.7605H60.4277C61.0332 43.7605 61.524 43.2358 61.524 42.5886C61.524 41.9414 61.0332 41.4167 60.4277 41.4167H21.6822C21.0768 41.4167 20.5859 41.9414 20.5859 42.5886C20.5859 43.2358 21.0768 43.7605 21.6822 43.7605Z" fill="#C4C4C4"/>
<path d="M61.5246 58.1198C61.5246 57.4727 61.0337 56.948 60.4283 56.948H35.0016C34.3961 56.948 33.9053 57.4727 33.9053 58.1198C33.9053 58.767 34.3961 59.2917 35.0016 59.2917H60.4283C61.0337 59.2917 61.5246 58.767 61.5246 58.1198Z" fill="#C4C4C4"/>
</svg>