<svg id="Capa_1" enable-background="new 0 0 511.992 511.992" height="512" viewBox="0 0 511.992 511.992" width="512" xmlns="http://www.w3.org/2000/svg"><g><g><g><path d="m511.727 18.269c1.629-6.988-4.504-13.327-11.547-11.954-1.257.245-2.079.41-2.135.435l-482.322 195.243c-9.303 3.767-15.321 12.342-15.704 22.382-.383 10.041 4.965 19.052 13.957 23.517l109.996 54.612 29.991 191.321c-.854 4.088.927 8.3 4.499 10.527 1.628 1.015 3.462 1.514 5.288 1.514.11 0 .22-.002.33-.006.11.004.22.006.329.006 3.465 0 6.613-1.789 8.417-4.606l114.431-98.037 89.277 58.523c4.152 2.722 8.951 4.113 13.782 4.113 3.182 0 6.377-.604 9.408-1.829 7.644-3.088 13.294-9.736 15.115-17.783l96.872-427.918c.004-.01.009-.03.016-.06zm-257.695 186.363c-3.324-4.409-9.595-5.288-14.005-1.965l-108.063 81.475-109.093-54.164c-2.702-1.342-2.905-3.832-2.866-4.841.039-1.008.429-3.474 3.223-4.605l413.339-167.32-124.53 94.866c-4.394 3.347-5.242 9.622-1.895 14.015 3.348 4.395 9.622 5.244 14.015 1.896l92.176-70.219-218.846 236.432c-.967 1.003-1.735 2.22-2.223 3.601-.002.005-28.715 111.175-28.715 111.175l-22.691-144.756 108.209-81.585c4.411-3.324 5.29-9.595 1.965-14.005zm-71.991 262.396 28.894-113.838 58.908 38.616zm213.294-25.198c-.522 2.301-2.167 3.278-3.102 3.655-.931.376-2.78.814-4.733-.467l-167.44-109.76 263.956-285.171z"/></g><g><path d="m282.22 193.231c-4.231 0-8.115-2.774-9.47-6.786-1.317-3.897-.066-8.335 3.126-10.942 3.159-2.58 7.649-2.963 11.212-.993 3.601 1.991 5.611 6.127 5.015 10.191-.709 4.837-4.997 8.53-9.883 8.53z"/></g></g></g></svg>